<svg xmlns="http://www.w3.org/2000/svg" width="720" height="520" viewBox="0 0 720 520">
  <defs>
    <linearGradient id="wallpaper" x1="0" y1="0" x2="1" y2="1">
      <stop offset="0" stop-color="#173F8F"/>
      <stop offset=".43" stop-color="#5D78EA"/>
      <stop offset="1" stop-color="#F6A45F"/>
    </linearGradient>
    <radialGradient id="blueOrb" cx=".3" cy=".3" r=".75">
      <stop offset="0" stop-color="#83E7FF"/>
      <stop offset="1" stop-color="#1473FF" stop-opacity=".12"/>
    </radialGradient>
    <radialGradient id="peachOrb" cx=".35" cy=".3" r=".78">
      <stop offset="0" stop-color="#FFE1BB"/>
      <stop offset="1" stop-color="#FF7B72" stop-opacity=".15"/>
    </radialGradient>
    <linearGradient id="glass" x1="0" y1="0" x2="0" y2="1">
      <stop offset="0" stop-color="#FFFFFF" stop-opacity=".64"/>
      <stop offset=".55" stop-color="#F4F6FC" stop-opacity=".49"/>
      <stop offset="1" stop-color="#E8EEFA" stop-opacity=".43"/>
    </linearGradient>
    <linearGradient id="edge" x1="0" y1="0" x2="0" y2="1">
      <stop offset="0" stop-color="#FFFFFF" stop-opacity=".88"/>
      <stop offset=".52" stop-color="#FFFFFF" stop-opacity=".28"/>
      <stop offset="1" stop-color="#17294E" stop-opacity=".16"/>
    </linearGradient>
    <linearGradient id="topWash" x1="0" y1="0" x2="1" y2="1">
      <stop offset="0" stop-color="#FFFFFF" stop-opacity=".22"/>
      <stop offset=".52" stop-color="#FFFFFF" stop-opacity="0"/>
    </linearGradient>
    <clipPath id="glassClip">
      <rect x="148" y="88" width="424" height="324" rx="52"/>
    </clipPath>
    <filter id="backdropBlur" x="-20%" y="-20%" width="140%" height="140%">
      <feGaussianBlur stdDeviation="18"/>
      <feColorMatrix type="saturate" values="1.18"/>
    </filter>
    <filter id="shadow" x="-30%" y="-35%" width="160%" height="190%">
      <feGaussianBlur in="SourceAlpha" stdDeviation="15"/>
      <feOffset dy="12"/>
      <feColorMatrix values="0 0 0 0 0.02  0 0 0 0 0.05  0 0 0 0 0.14  0 0 0 .30 0"/>
      <feMerge><feMergeNode/><feMergeNode in="SourceGraphic"/></feMerge>
    </filter>
    <g id="wallpaperArt">
      <circle cx="94" cy="434" r="238" fill="url(#blueOrb)" opacity=".92"/>
      <circle cx="648" cy="70" r="198" fill="url(#peachOrb)" opacity=".95"/>
      <path d="M-68 174C104 40 221 40 347 133s254 77 444-81" fill="none" stroke="#D7E7FF" stroke-width="88" stroke-linecap="round" opacity=".18"/>
      <path d="M-82 451c154-100 303-91 429 3s257 82 466-35" fill="none" stroke="#FFE4BF" stroke-width="92" stroke-linecap="round" opacity=".17"/>
    </g>
  </defs>

  <rect width="720" height="520" fill="url(#wallpaper)"/>
  <use href="#wallpaperArt"/>

  <g clip-path="url(#glassClip)" opacity=".70" filter="url(#backdropBlur)">
    <use href="#wallpaperArt"/>
  </g>

  <g filter="url(#shadow)">
    <rect x="148" y="88" width="424" height="324" rx="52" fill="url(#glass)"/>
    <rect x="148" y="88" width="424" height="324" rx="52" fill="url(#topWash)"/>
    <rect x="148.7" y="88.7" width="422.6" height="322.6" rx="51.3" fill="none" stroke="url(#edge)" stroke-width="1.4"/>

    <circle cx="188" cy="128" r="23" fill="#0A84FF" opacity=".13"/>
    <path d="M191 110l-15 20h12l-4 16 17-23h-12z" fill="#0A84FF"/>
    <text x="222" y="136" fill="#10131A" fill-opacity=".92" font-family="-apple-system, BlinkMacSystemFont, 'SF Pro Text', sans-serif" font-size="25" font-weight="600">Codex Energy</text>

    <rect x="477" y="106" width="70" height="44" rx="22" fill="#141820" opacity=".065"/>
    <circle cx="493" cy="128" r="4.5" fill="#30D158"/>
    <text x="506" y="133" fill="#1CA646" font-family="-apple-system, BlinkMacSystemFont, 'SF Pro Text', sans-serif" font-size="17" font-weight="600" letter-spacing=".7">LIVE</text>

    <text x="176" y="188" fill="#10131A" fill-opacity=".90" font-family="-apple-system, BlinkMacSystemFont, 'SF Pro Text', sans-serif" font-size="23" font-weight="600">5-Hour Limit</text>
    <text x="526" y="190" text-anchor="end" fill="#10131A" fill-opacity=".94" font-family="-apple-system, BlinkMacSystemFont, 'SF Pro Text', sans-serif" font-size="34" font-weight="600" font-variant-numeric="tabular-nums">54%</text>
    <text x="532" y="190" fill="#10131A" fill-opacity=".54" font-family="-apple-system, BlinkMacSystemFont, 'SF Pro Text', sans-serif" font-size="18" font-weight="500">left</text>
    <rect x="176" y="204" width="368" height="10" rx="5" fill="#10131A" opacity=".10"/>
    <rect x="176" y="204" width="198.7" height="10" rx="5" fill="#0A84FF"/>
    <circle cx="183" cy="237" r="7" fill="none" stroke="#10131A" stroke-opacity=".52" stroke-width="1.8"/>
    <path d="M183 233v4l3 2" fill="none" stroke="#10131A" stroke-opacity=".52" stroke-width="1.8" stroke-linecap="round"/>
    <text x="199" y="244" fill="#10131A" fill-opacity=".56" font-family="-apple-system, BlinkMacSystemFont, 'SF Pro Text', sans-serif" font-size="19" font-weight="500" font-variant-numeric="tabular-nums">Resets in 01:17:33</text>

    <line x1="176" y1="264" x2="544" y2="264" stroke="#10131A" stroke-opacity=".09" stroke-width="1"/>

    <text x="176" y="301" fill="#10131A" fill-opacity=".90" font-family="-apple-system, BlinkMacSystemFont, 'SF Pro Text', sans-serif" font-size="23" font-weight="600">Weekly Limit</text>
    <text x="526" y="303" text-anchor="end" fill="#10131A" fill-opacity=".94" font-family="-apple-system, BlinkMacSystemFont, 'SF Pro Text', sans-serif" font-size="34" font-weight="600" font-variant-numeric="tabular-nums">93%</text>
    <text x="532" y="303" fill="#10131A" fill-opacity=".54" font-family="-apple-system, BlinkMacSystemFont, 'SF Pro Text', sans-serif" font-size="18" font-weight="500">left</text>
    <rect x="176" y="317" width="368" height="10" rx="5" fill="#10131A" opacity=".10"/>
    <rect x="176" y="317" width="342.2" height="10" rx="5" fill="#0A84FF"/>
    <circle cx="183" cy="350" r="7" fill="none" stroke="#10131A" stroke-opacity=".52" stroke-width="1.8"/>
    <path d="M183 346v4l3 2" fill="none" stroke="#10131A" stroke-opacity=".52" stroke-width="1.8" stroke-linecap="round"/>
    <text x="199" y="357" fill="#10131A" fill-opacity=".56" font-family="-apple-system, BlinkMacSystemFont, 'SF Pro Text', sans-serif" font-size="19" font-weight="500" font-variant-numeric="tabular-nums">Resets in 6d 20h</text>
  </g>

  <text x="360" y="474" text-anchor="middle" fill="#FFFFFF" fill-opacity=".72" font-family="-apple-system, BlinkMacSystemFont, sans-serif" font-size="16" font-weight="600" letter-spacing=".4">224 × 174 pt · NATIVE REGULAR GLASS</text>
</svg>
